<svg id="Layer_1" enable-background="new 0 0 512 512" height="512" viewBox="0 0 512 512" width="512" xmlns="http://www.w3.org/2000/svg"><path clip-rule="evenodd" d="m64.673 211.213 94.098-82.356c-1.304-3.562-2.015-7.408-2.015-11.421 0-18.348 14.874-33.221 33.221-33.221 17.997 0 32.65 14.31 33.205 32.172l74.372 26.038c6.093-7.153 15.165-11.69 25.297-11.69 5.717 0 11.096 1.444 15.793 3.987l85.739-73.255c-1.216-3.454-1.88-7.168-1.88-11.038 0-18.347 14.874-33.221 33.221-33.221 18.349 0 33.223 14.874 33.223 33.221 0 18.349-14.874 33.223-33.223 33.223-5.716 0-11.096-1.444-15.792-3.987l-85.739 73.255c1.216 3.454 1.88 7.168 1.88 11.038 0 18.347-14.874 33.221-33.223 33.221-17.996 0-32.648-14.31-33.203-32.171l-74.372-26.038c-6.094 7.153-15.165 11.69-25.298 11.69-5.579 0-10.835-1.377-15.451-3.807l-94.098 82.356c1.304 3.561 2.015 7.408 2.015 11.421 0 18.349-14.874 33.221-33.223 33.221-18.346-.002-33.22-14.874-33.22-33.223s14.874-33.221 33.221-33.221c5.579 0 10.836 1.376 15.452 3.806zm365.779-61.954c-8.261 0-15 6.738-15 15v306.128c0 8.262 6.739 15 15 15h50.548c8.263 0 15.001-6.738 15.001-15v-306.128c0-8.262-6.737-15-15.001-15zm-132.875 122.33c-8.262 0-14.999 6.738-14.999 15v186.934c0 8.263 6.738 15 14.999 15h50.55c8.262 0 14.999-6.738 14.999-15 0-62.31 0-124.622 0-186.934 0-8.262-6.737-15-14.999-15-16.851 0-33.699 0-50.55 0zm-132.873-43.917c-8.263 0-15.001 6.738-15.001 15v233.987c0 8.262 6.737 15 15.001 15h50.548c8.261 0 15-6.738 15-15v-233.987c0-8.262-6.739-15-15-15zm-132.874 129.117h50.547c8.262 0 15.001 6.738 15.001 15v108.005c0 8.262-6.739 15-15.001 15h-50.547c-8.262 0-15.001-6.738-15.001-15v-108.005c.001-8.263 6.74-15 15.001-15z" fill-rule="evenodd"/></svg>