<svg id="line" viewBox="0 0 64 64" xmlns="http://www.w3.org/2000/svg"><path d="m38.04288 26.02-11.04906-6.6293a3.99066 3.99066 0 0 0 -6.01 3.40259v13.25843a3.968 3.968 0 0 0 6.01 3.402l11.04906-6.62924a3.992 3.992 0 0 0 0-6.80448zm-1.0295 5.08939-11.04906 6.62919a1.97853 1.97853 0 0 1 -2.98009-1.68692v-13.25843a1.97886 1.97886 0 0 1 2.98009-1.68723l11.04906 6.62918a1.97938 1.97938 0 0 1 0 3.37416z"/><path d="m56.95386 37.06968v-22.24824a6.00775 6.00775 0 0 0 -6.00119-6.00119h-40.94855a6.00775 6.00775 0 0 0 -6.00119 6.00119c-.00293.01456.00562 2.8321-.00293 2.84425.01 5.87885-.00256 17.64589.00293 23.528v2.82393a6.00775 6.00775 0 0 0 6.00119 6.00119c.26543.02551 28.91784-.01844 30.223.00006a10.66938 10.66938 0 0 0 9.12559 5.16063c9.36102.05773 14.1962-11.51714 7.60115-18.10982zm-7.91173-26.249h1.91054a4.00506 4.00506 0 0 1 4.00079 4.00079v1.84411h-5.91133zm0 7.8453h5.91133v9.75633h-5.91133zm0 11.75673h5.91133v5.03664a10.49856 10.49856 0 0 0 -5.91133-1.59877zm-37.13041 17.59574h-1.9076a4.00506 4.00506 0 0 1 -4.00079-4.00079v-1.83826h5.90839zm0-7.83945h-5.90839v-9.75632h5.90839zm0-11.75672h-5.90839v-9.75628h5.90839zm37.441 24.75686a8.65751 8.65751 0 0 1 -4.76264-15.89714 1.00039 1.00039 0 0 0 -1.09788-1.67221 10.6622 10.6622 0 0 0 -4.20933 12.40871h-25.37075v-34.19238a1.00033 1.00033 0 0 0 -2.0004.00006v2.83937h-5.90839v-1.84411a4.00506 4.00506 0 0 1 4.00079-4.00079h37.03762v24.12489a1.02 1.02 0 0 0 1.13889.99044 8.66138 8.66138 0 1 1 1.17211 17.24316z"/><path d="m53.64168 40.47838-5.96115 5.96062-2.62649-2.627a1.00029 1.00029 0 0 0 -1.41435 1.41434l3.33367 3.33416a1.00581 1.00581 0 0 0 1.41435 0l6.66829-6.66778a1.00028 1.00028 0 0 0 -1.41432-1.41434z"/></svg>